<svg width="122" height="125" viewBox="0 0 122 125" fill="none" xmlns="http://www.w3.org/2000/svg">
<path d="M-3.90575e-05 17.0997C1.29218 13.8691 5.16884 12.5769 5.16884 12.5769C5.16884 12.5769 5.59958 10.6386 6.67643 8.9156C6.46106 8.70023 6.03031 8.48487 5.81494 8.05413C5.3842 6.97728 5.3842 5.68506 5.81494 4.60821C7.32253 1.37766 8.18402 3.31599 9.69161 3.31599C11.1992 3.31599 11.6299 0.731546 13.1375 1.16229C13.5683 1.37766 13.999 2.02376 14.6451 2.02376C15.2912 2.02376 15.9373 0.731546 17.4449 0.085436C19.3833 -0.560674 19.3832 2.66988 20.0294 2.66988C20.6755 2.66988 21.3216 1.59303 22.6138 1.59303C24.1214 1.59303 24.1214 5.25431 24.1214 5.25431C24.1214 5.25431 26.0597 3.9621 26.7058 5.46968C26.9212 5.90042 26.7058 6.97728 26.2751 7.83875C25.4136 9.34634 23.906 9.56171 22.3984 9.77708C29.721 14.7306 38.1204 25.2837 46.3045 43.1594C52.3349 44.4516 60.3035 44.0209 70.6413 43.5902C81.6252 33.037 72.3643 10.6386 96.4857 9.99245C102.301 9.77708 110.054 10.8539 116.515 19.4687C119.315 23.3454 122.976 32.3909 109.623 25.9298C122.976 36.9137 122.976 48.9744 119.315 50.2666C114.792 51.9896 105.962 41.0057 101.655 37.9905C108.331 47.0361 113.285 58.02 109.839 59.7429C106.823 61.2505 101.224 55.0048 99.0701 53.7126C97.7779 51.7742 99.5009 54.7894 101.87 60.8198C104.67 66.8501 100.147 68.1423 94.9781 64.6964C94.5474 64.481 94.1166 64.2657 93.6859 64.0503C92.8244 67.927 91.1014 71.5883 88.7324 74.3881C82.702 81.4953 76.0256 90.9716 65.9032 95.7097C64.3956 98.9402 60.9497 101.955 58.796 103.678L59.6574 118.97C59.6574 118.97 62.2419 119.185 62.2419 122.846H54.0578L49.1043 123.277L43.0739 125C43.0739 125 42.8586 123.923 43.2893 123.062L37.4743 123.708C37.4743 123.708 37.0436 121.554 39.628 121.339C42.2125 121.123 51.4734 119.4 51.4734 119.4L50.8273 104.971L46.3045 99.1556C48.6736 99.1556 50.3965 98.9402 51.6887 98.7249C52.1195 98.7249 52.1195 98.0788 51.4734 98.0788C49.3197 98.2941 45.0123 97.8634 45.0123 97.8634C29.0749 95.4943 18.9525 86.6642 15.2912 75.4649C3.01514 62.9735 12.276 45.3131 12.4914 28.5143C9.6916 29.3757 5.59958 27.8682 5.59958 25.0683C5.59958 22.4839 6.46106 20.1148 7.32254 18.6072L-3.90575e-05 17.0997Z" fill="black"/>
</svg>
