<svg width="250" height="126" viewBox="0 0 250 126" fill="none" xmlns="http://www.w3.org/2000/svg">
<path fill-rule="evenodd" clip-rule="evenodd" d="M150.477 111.957C150.477 101.153 147.391 99.61 141.989 88.0349C145.847 88.0349 149.706 87.2632 153.564 87.2632C156.651 91.8933 162.052 98.0667 162.052 104.24C162.824 108.87 162.824 113.5 163.596 118.13C166.682 130.477 150.477 124.304 150.477 111.957Z" fill="black"/>
<path fill-rule="evenodd" clip-rule="evenodd" d="M50.9307 123.532C43.214 121.217 47.0723 115.815 44.7573 105.783C39.3556 97.2949 35.4972 88.8065 39.3556 78.7747C38.5839 76.4596 37.8122 71.0579 37.0405 67.9712C41.6706 73.3729 46.3007 78.7747 50.1591 84.1764C48.6157 93.4366 50.9307 96.5233 54.7891 104.24C55.5608 107.327 55.5608 110.413 56.3325 114.272C56.3325 118.902 63.2776 126.619 50.9307 123.532Z" fill="black"/>
<path fill-rule="evenodd" clip-rule="evenodd" d="M240.763 49.451C235.362 44.0493 231.503 39.4192 226.102 34.7892C234.59 30.1591 237.677 21.6706 237.677 14.7255C221.472 26.3007 216.841 13.1822 204.495 34.7892C205.266 30.9308 208.353 25.529 212.211 22.4423C190.604 5.4654 154.336 -0.708018 118.838 0.0636598C96.4597 0.835338 64.0493 0.835337 44.7573 15.4972C46.3007 17.8122 47.844 20.1273 50.1591 23.214C35.4972 3.15037 10.0318 11.6388 18.5203 31.7025C20.0636 37.1042 28.5521 56.3961 18.5203 56.3961C8.48846 47.136 10.8035 58.7112 0 52.5378C6.17342 72.6014 26.237 67.1996 27.7804 51.7661C28.5521 45.5927 24.6937 40.1909 23.922 32.4741C22.3787 23.214 28.5521 17.8123 36.2689 24.7574C20.8353 47.9077 38.5839 65.6563 52.4741 83.4049C50.9307 94.2084 53.2458 95.7517 57.1042 103.468C57.8758 107.327 57.8758 110.414 58.6475 113.5C58.6475 116.587 61.7342 120.445 64.8209 122.76C67.136 124.304 71.766 125.075 75.6244 124.304C81.7979 122.76 68.6793 115.815 69.451 111.185C70.2227 107.327 70.2227 101.925 69.451 97.2951C75.6244 89.5783 78.7111 78.0031 84.8846 72.6014C81.7979 78.0031 79.4828 81.8615 79.4828 84.9482C107.263 88.8066 125.012 88.0349 152.021 84.9482C147.39 71.8297 149.706 69.5147 157.422 57.1678C152.021 67.9713 148.934 74.9164 155.879 86.4916C158.966 91.8933 164.367 97.2951 164.367 104.24C165.139 109.642 165.139 113.5 165.911 118.13C166.682 122.76 171.312 125.075 175.943 125.847C181.344 125.847 187.518 126.619 179.029 116.587C175.943 112.729 176.714 104.24 176.714 100.382C176.714 89.5783 182.888 79.5465 188.289 71.058C185.974 76.4598 184.431 79.5465 183.659 82.6332C214.526 80.3182 216.841 78.7748 236.905 67.1996C234.59 66.428 231.503 64.8846 228.417 64.1129C232.275 64.8846 236.133 65.6563 238.448 66.428C240.763 64.8846 242.307 64.1129 244.622 62.5696C252.339 62.5696 252.339 44.821 240.763 49.451ZM246.937 50.2227C246.937 50.2227 247.709 50.9944 248.48 50.9944C248.48 51.7661 248.48 52.5378 248.48 52.5378C247.709 53.3094 246.937 52.5378 246.937 51.7661C246.937 50.9944 246.937 50.2227 246.937 50.2227Z" fill="black"/>
</svg>
